#N canvas 0 0 1904 968 10;
#X obj 700 1040 dac~;
#X obj 427 419 mtof;
#X obj 427 242 bng 15 250 50 0 empty empty empty 17 7 0 10 #fcfcfc
#000000 #000000;
#X obj 28 21 tgl 15 0 empty empty empty 17 7 0 10 #fcfcfc #000000 #000000
0 1;
#X msg 28 46 \; pd dsp \$1;
#X obj 866 325 bng 15 250 50 0 empty empty empty 17 7 0 10 #fcfcfc
#000000 #000000;
#X obj 866 379 f;
#X obj 909 381 + 1;
#X obj 868 447 select 0 1 2 3;
#X obj 867 415 mod 4;
#X floatatom 960 242 5 0 0 0 - - -, f 5;
#N canvas 186 80 299 281 randomTrigger 0;
#X obj 53 142 <= 1;
#X obj 54 58 random 1000;
#X obj 54 81 / 1000;
#X floatatom 172 99 5 0 1 0 - - -, f 5;
#X floatatom 53 106 5 0 0 0 - - -, f 5;
#X floatatom 53 188 5 0 0 0 - - -, f 5;
#X obj 42 228 select 1;
#X obj 43 19 inlet;
#X obj 177 41 inlet;
#X obj 42 261 outlet;
#X connect 0 0 5 0;
#X connect 1 0 2 0;
#X connect 2 0 4 0;
#X connect 3 0 0 1;
#X connect 4 0 0 0;
#X connect 5 0 6 0;
#X connect 6 0 9 0;
#X connect 7 0 1 0;
#X connect 8 0 3 0;
#X restore 867 274 pd randomTrigger;
#X floatatom 521 159 5 0 0 0 - - -, f 5;
#X obj 2042 206 bng 15 250 50 0 empty empty empty 17 7 0 10 #fcfcfc
#000000 #000000;
#N canvas 770 49 864 973 genStinger 0;
#X obj 86 370 random 5;
#X obj 86 404 select 0 1 2 3 4;
#X msg 81 453 0;
#X msg 203 453 7;
#X obj 157 507 + 0;
#X floatatom 322 466 5 0 0 0 - - -, f 5;
#X obj 322 413 loadbang;
#X obj 83 27 bng 15 250 50 0 empty empty empty 17 7 0 10 #fcfcfc #000000
#000000;
#X floatatom 145 643 5 0 0 0 - - -, f 5;
#X obj 166 856 *~;
#X obj 144 612 mtof;
#X obj 128 970 outlet~;
#X obj 83 1 inlet;
#X obj 145 724 osc~;
#X msg 120 453 3;
#X msg 162 453 5;
#X msg 249 454 10;
#X obj 162 91 random 200;
#X obj 157 161 t b f;
#X obj 155 197 del;
#X obj 244 232 t b f;
#X obj 242 268 del;
#X obj 244 165 + 100;
#X obj 362 254 t b f;
#X obj 360 290 del;
#X obj 365 186 + 100;
#X floatatom 532 751 5 0 0 0 - - -, f 5;
#X floatatom 513 722 5 0 0 0 - - -, f 5;
#X floatatom 496 697 5 0 0 0 - - -, f 5;
#X floatatom 461 650 5 0 0 0 - - -, f 5;
#X floatatom 479 675 5 0 0 0 - - -, f 5;
#X text 499 648 peak level;
#X text 520 670 attack duration (ms);
#X text 534 692 decay duration (ms);
#X text 554 718 sustain level (% of peak);
#X text 566 748 release duration (ms);
#N canvas 251 52 707 458 envelope_adsr 0;
#X obj 209 53 moses;
#X obj 112 56 inlet;
#X obj 112 92 sel 0;
#X msg 111 130 stop;
#X obj 209 93 t b b;
#X obj 258 125 t b;
#X obj 174 209 f \$1;
#X obj 174 245 pack 0 \$2;
#X msg 125 245 0;
#X obj 337 145 inlet;
#X obj 377 145 inlet;
#X obj 421 145 inlet;
#X obj 461 145 inlet;
#X obj 314 239 del \$2;
#X obj 314 265 f \$4;
#X obj 390 268 * \$1;
#X obj 389 299 pack 0 \$3;
#X obj 472 301 pack 0 \$5;
#X obj 518 269 inlet;
#X obj 354 358 line~;
#X obj 354 386 outlet~;
#X obj 313 299 * 0.5;
#X connect 0 0 4 0;
#X connect 0 1 5 0;
#X connect 1 0 2 0;
#X connect 2 0 3 0;
#X connect 2 0 17 0;
#X connect 2 1 0 0;
#X connect 3 0 13 0;
#X connect 4 0 5 0;
#X connect 4 1 8 0;
#X connect 5 0 6 0;
#X connect 5 0 13 0;
#X connect 6 0 7 0;
#X connect 7 0 19 0;
#X connect 8 0 19 0;
#X connect 9 0 15 1;
#X connect 9 0 6 1;
#X connect 10 0 13 1;
#X connect 10 0 7 1;
#X connect 11 0 16 1;
#X connect 12 0 14 1;
#X connect 13 0 14 0;
#X connect 14 0 21 0;
#X connect 15 0 16 0;
#X connect 16 0 19 0;
#X connect 17 0 19 0;
#X connect 18 0 17 1;
#X connect 19 0 20 0;
#X connect 21 0 15 0;
#X restore 438 789 pd envelope_adsr;
#X msg 541 604 1;
#X obj 548 561 loadbang;
#X obj 412 688 tgl 15 0 empty empty empty 17 7 0 10 #fcfcfc #000000
#000000 0 1;
#X obj 419 570 bng 15 250 50 0 empty empty empty 17 7 0 10 #fcfcfc
#000000 #000000;
#X msg 390 646 1;
#X msg 422 646 0;
#X obj 422 613 del 1000;
#X msg 662 605 500;
#X msg 578 603 50;
#X msg 619 603 1;
#X obj 195 727 osc~;
#N canvas 270 86 1178 553 chorus 0;
#X obj 23 259 delwrite~ \$0-delay 1000;
#X obj 221 106 osc~ 0.05;
#X obj 221 131 *~ 10;
#X obj 376 130 *~ 10;
#X obj 221 156 +~ 11;
#X obj 376 155 +~ 21;
#X obj 376 105 osc~ 0.08;
#X obj 511 135 *~ 10;
#X obj 511 110 osc~ 0.13;
#X obj 511 160 +~ 13;
#X obj 694 142 *~ 10;
#X obj 694 167 +~ 55;
#X obj 694 117 osc~ 0.03;
#X obj 839 168 +~ 87;
#X obj 839 118 osc~ 0.015;
#X obj 985 114 osc~ 0.12;
#X obj 985 164 +~ 67;
#X obj 985 139 *~ 5;
#X obj 839 143 *~ 15;
#X obj 221 184 vd~ \$0-delay;
#X obj 376 183 vd~ \$0-delay;
#X obj 511 188 vd~ \$0-delay;
#X obj 694 195 vd~ \$0-delay;
#X obj 839 196 vd~ \$0-delay;
#X obj 985 192 vd~ \$0-delay;
#X obj 61 145 nbx 5 14 -1e+37 1e+37 0 0 empty empty empty 0 -8 0 10
#fcfcfc #000000 #000000 0 256 0;
#X obj 22 92 inlet~;
#X obj 532 418 outlet~;
#X obj 630 416 outlet~;
#X obj 271 269 *~ 0.05;
#X obj 214 270 *~ 0.95;
#X obj 1032 261 *~ 0.95;
#X obj 975 262 *~ 0.05;
#X obj 884 262 *~ 0.85;
#X obj 368 266 *~ 0.85;
#X obj 498 267 *~ 0.7;
#X obj 744 263 *~ 0.7;
#X obj 827 263 *~ 0.15;
#X obj 687 264 *~ 0.3;
#X obj 555 266 *~ 0.3;
#X obj 425 265 *~ 0.15;
#X obj 222 221 /~ 6;
#X obj 375 224 /~ 6;
#X obj 512 221 /~ 6;
#X obj 696 226 /~ 6;
#X obj 841 224 /~ 6;
#X obj 988 225 /~ 6;
#X obj 23 172 *~ 1;
#X connect 1 0 2 0;
#X connect 2 0 4 0;
#X connect 3 0 5 0;
#X connect 4 0 19 0;
#X connect 5 0 20 0;
#X connect 6 0 3 0;
#X connect 7 0 9 0;
#X connect 8 0 7 0;
#X connect 9 0 21 0;
#X connect 10 0 11 0;
#X connect 11 0 22 0;
#X connect 12 0 10 0;
#X connect 13 0 23 0;
#X connect 14 0 18 0;
#X connect 15 0 17 0;
#X connect 16 0 24 0;
#X connect 17 0 16 0;
#X connect 18 0 13 0;
#X connect 19 0 41 0;
#X connect 20 0 42 0;
#X connect 21 0 43 0;
#X connect 22 0 44 0;
#X connect 23 0 45 0;
#X connect 24 0 46 0;
#X connect 25 0 47 1;
#X connect 26 0 47 0;
#X connect 29 0 28 0;
#X connect 30 0 27 0;
#X connect 31 0 28 0;
#X connect 32 0 27 0;
#X connect 33 0 28 0;
#X connect 34 0 27 0;
#X connect 35 0 27 0;
#X connect 36 0 28 0;
#X connect 37 0 27 0;
#X connect 38 0 27 0;
#X connect 39 0 28 0;
#X connect 40 0 28 0;
#X connect 41 0 30 0;
#X connect 41 0 29 0;
#X connect 42 0 34 0;
#X connect 42 0 40 0;
#X connect 43 0 35 0;
#X connect 43 0 39 0;
#X connect 44 0 36 0;
#X connect 44 0 38 0;
#X connect 45 0 33 0;
#X connect 45 0 37 0;
#X connect 46 0 31 0;
#X connect 46 0 32 0;
#X connect 47 0 0 0;
#X restore 161 926 pd chorus;
#N canvas 1026 414 479 474 distortion 0;
#X obj 147 32 inlet~;
#X obj 159 351 outlet~;
#N canvas 0 23 713 460 tanh 0;
#X obj 241 65 inlet~;
#X text 493 89 __;
#X text 575 89 __;
#X text 527 89 __;
#X text 626 89 __;
#X text 493 106 1 +;
#X text 529 106 3 +;
#X text 577 106 5 +;
#X text 627 106 7 +;
#X text 443 32 As a continued fraction;
#X obj 240 148 *~;
#X obj 165 265 /~;
#X obj 165 350 /~;
#X obj 165 288 /~;
#X obj 165 321 /~;
#X text 427 78 tanh(z) = z z^2 4z^2 9z^2 ...;
#X obj 292 175 *~ 4;
#X obj 291 206 +~ 3;
#X obj 335 174 *~ 9;
#X obj 334 205 +~ 5;
#X obj 375 175 *~ 16;
#X obj 374 205 +~ 7;
#X obj 240 206 +~ 1;
#X obj 165 401 outlet~;
#X obj 165 372 *~ 576;
#X text 276 114 1/pi;
#X obj 241 89 *~ 0.30831;
#X connect 0 0 26 0;
#X connect 10 0 16 0;
#X connect 10 0 18 0;
#X connect 10 0 20 0;
#X connect 10 0 22 0;
#X connect 11 0 13 0;
#X connect 12 0 24 0;
#X connect 13 0 14 0;
#X connect 14 0 12 0;
#X connect 16 0 17 0;
#X connect 17 0 13 1;
#X connect 18 0 19 0;
#X connect 19 0 14 1;
#X connect 20 0 21 0;
#X connect 21 0 12 1;
#X connect 22 0 11 1;
#X connect 24 0 23 0;
#X connect 26 0 10 1;
#X connect 26 0 10 0;
#X connect 26 0 11 0;
#X restore 238 187 pd tanh afarnell;
#X obj 233 142 *~ 4.44;
#X obj 244 243 *~ 0.35;
#X obj 121 229 *~ 0.65;
#X connect 0 0 3 0;
#X connect 0 0 5 0;
#X connect 2 0 4 0;
#X connect 3 0 2 0;
#X connect 4 0 1 0;
#X connect 5 0 1 0;
#X restore 159 887 pd distortion;
#X obj 206 968 outlet~;
#X obj 194 760 *~ 0.5;
#X obj 184 690 * 3;
#X msg 322 440 95;
#X obj 243 200 + 25;
#X obj 363 220 + 25;
#X obj 162 127 + 200;
#X obj 255 119 random 100;
#X obj 376 140 random 100;
#X connect 0 0 1 0;
#X connect 1 0 2 0;
#X connect 1 1 14 0;
#X connect 1 2 15 0;
#X connect 1 3 3 0;
#X connect 1 4 16 0;
#X connect 2 0 4 0;
#X connect 3 0 4 0;
#X connect 4 0 10 0;
#X connect 4 0 40 0;
#X connect 5 0 4 1;
#X connect 6 0 53 0;
#X connect 7 0 0 0;
#X connect 7 0 17 0;
#X connect 8 0 13 0;
#X connect 8 0 52 0;
#X connect 9 0 49 0;
#X connect 10 0 8 0;
#X connect 12 0 7 0;
#X connect 13 0 9 0;
#X connect 14 0 4 0;
#X connect 15 0 4 0;
#X connect 16 0 4 0;
#X connect 17 0 56 0;
#X connect 18 0 19 0;
#X connect 18 0 57 0;
#X connect 18 1 19 1;
#X connect 18 1 22 1;
#X connect 19 0 0 0;
#X connect 20 0 21 0;
#X connect 20 0 58 0;
#X connect 20 1 21 1;
#X connect 20 1 25 1;
#X connect 21 0 0 0;
#X connect 22 0 54 0;
#X connect 23 0 24 0;
#X connect 23 1 24 1;
#X connect 24 0 0 0;
#X connect 25 0 55 0;
#X connect 26 0 36 5;
#X connect 27 0 36 4;
#X connect 28 0 36 3;
#X connect 29 0 36 1;
#X connect 30 0 36 2;
#X connect 36 0 9 1;
#X connect 37 0 29 0;
#X connect 38 0 37 0;
#X connect 38 0 45 0;
#X connect 38 0 46 0;
#X connect 38 0 44 0;
#X connect 39 0 36 0;
#X connect 40 0 41 0;
#X connect 40 0 43 0;
#X connect 41 0 39 0;
#X connect 42 0 39 0;
#X connect 43 0 42 0;
#X connect 44 0 26 0;
#X connect 45 0 30 0;
#X connect 45 0 28 0;
#X connect 46 0 27 0;
#X connect 47 0 51 0;
#X connect 48 0 11 0;
#X connect 48 1 50 0;
#X connect 49 0 48 0;
#X connect 51 0 9 0;
#X connect 52 0 47 0;
#X connect 53 0 5 0;
#X connect 54 0 20 0;
#X connect 55 0 23 0;
#X connect 56 0 18 0;
#X connect 57 0 22 0;
#X connect 58 0 25 0;
#X restore 2043 255 pd genStinger;
#N canvas 434 144 826 842 genPentatonic 0;
#X obj 75 77 random 5;
#X obj 75 111 select 0 1 2 3 4;
#X obj 145 253 + 0;
#X floatatom 311 173 5 0 0 0 - - -, f 5;
#X obj 311 120 loadbang;
#X msg 311 147 59;
#X obj 83 27 bng 15 250 50 0 empty empty empty 17 7 0 10 #fcfcfc #000000
#000000;
#X floatatom 139 334 5 0 0 0 - - -, f 5;
#X obj 137 684 *~;
#X obj 138 303 mtof;
#X obj 138 718 outlet~;
#X obj 83 1 inlet;
#X obj 139 486 osc~;
#X floatatom 526 489 5 0 0 0 - - -, f 5;
#X floatatom 507 460 5 0 0 0 - - -, f 5;
#X floatatom 490 435 5 0 0 0 - - -, f 5;
#X floatatom 455 388 5 0 0 0 - - -, f 5;
#X floatatom 473 413 5 0 0 0 - - -, f 5;
#X text 493 386 peak level;
#X text 514 408 attack duration (ms);
#X text 528 430 decay duration (ms);
#X text 548 456 sustain level (% of peak);
#X text 560 486 release duration (ms);
#N canvas 251 52 707 458 envelope_adsr 0;
#X obj 209 53 moses;
#X obj 112 56 inlet;
#X obj 112 92 sel 0;
#X msg 111 130 stop;
#X obj 209 93 t b b;
#X obj 258 125 t b;
#X obj 174 209 f \$1;
#X obj 174 245 pack 0 \$2;
#X msg 125 245 0;
#X obj 337 145 inlet;
#X obj 377 145 inlet;
#X obj 421 145 inlet;
#X obj 461 145 inlet;
#X obj 314 239 del \$2;
#X obj 314 265 f \$4;
#X obj 390 268 * \$1;
#X obj 389 299 pack 0 \$3;
#X obj 472 301 pack 0 \$5;
#X obj 518 269 inlet;
#X obj 354 358 line~;
#X obj 354 386 outlet~;
#X obj 313 299 * 0.5;
#X connect 0 0 4 0;
#X connect 0 1 5 0;
#X connect 1 0 2 0;
#X connect 2 0 3 0;
#X connect 2 0 17 0;
#X connect 2 1 0 0;
#X connect 3 0 13 0;
#X connect 4 0 5 0;
#X connect 4 1 8 0;
#X connect 5 0 6 0;
#X connect 5 0 13 0;
#X connect 6 0 7 0;
#X connect 7 0 19 0;
#X connect 8 0 19 0;
#X connect 9 0 15 1;
#X connect 9 0 6 1;
#X connect 10 0 13 1;
#X connect 10 0 7 1;
#X connect 11 0 16 1;
#X connect 12 0 14 1;
#X connect 13 0 14 0;
#X connect 14 0 21 0;
#X connect 15 0 16 0;
#X connect 16 0 19 0;
#X connect 17 0 19 0;
#X connect 18 0 17 1;
#X connect 19 0 20 0;
#X connect 21 0 15 0;
#X restore 432 527 pd envelope_adsr;
#X msg 535 342 1;
#X obj 542 299 loadbang;
#X obj 406 426 tgl 15 0 empty empty empty 17 7 0 10 #fcfcfc #000000
#000000 0 1;
#X obj 413 308 bng 15 250 50 0 empty empty empty 17 7 0 10 #fcfcfc
#000000 #000000;
#X msg 384 384 1;
#X msg 416 384 0;
#X msg 572 341 50;
#X obj 182 488 osc~;
#X obj 184 456 * 1.5;
#X obj 234 487 osc~;
#X obj 236 456 * 3;
#X obj 416 351 del 50;
#X msg 695 344 180;
#X msg 651 342 0.1;
#X msg 605 344 10;
#X msg 239 161 5;
#X msg 192 160 4;
#X msg 70 160 -5;
#X msg 109 160 -4;
#X msg 150 160 0;
#X connect 0 0 1 0;
#X connect 1 0 41 0;
#X connect 1 1 42 0;
#X connect 1 2 43 0;
#X connect 1 3 40 0;
#X connect 1 4 39 0;
#X connect 2 0 9 0;
#X connect 3 0 2 1;
#X connect 4 0 5 0;
#X connect 5 0 3 0;
#X connect 6 0 0 0;
#X connect 6 0 27 0;
#X connect 7 0 12 0;
#X connect 7 0 32 0;
#X connect 7 0 34 0;
#X connect 8 0 10 0;
#X connect 9 0 7 0;
#X connect 11 0 6 0;
#X connect 12 0 8 0;
#X connect 13 0 23 5;
#X connect 14 0 23 4;
#X connect 15 0 23 3;
#X connect 16 0 23 1;
#X connect 17 0 23 2;
#X connect 23 0 8 1;
#X connect 24 0 16 0;
#X connect 25 0 24 0;
#X connect 25 0 30 0;
#X connect 25 0 37 0;
#X connect 25 0 36 0;
#X connect 25 0 38 0;
#X connect 26 0 23 0;
#X connect 27 0 28 0;
#X connect 27 0 35 0;
#X connect 28 0 26 0;
#X connect 29 0 26 0;
#X connect 30 0 17 0;
#X connect 31 0 8 0;
#X connect 32 0 31 0;
#X connect 33 0 8 0;
#X connect 34 0 33 0;
#X connect 35 0 29 0;
#X connect 36 0 13 0;
#X connect 37 0 14 0;
#X connect 38 0 15 0;
#X connect 39 0 2 0;
#X connect 40 0 2 0;
#X connect 41 0 2 0;
#X connect 42 0 2 0;
#X connect 43 0 2 0;
#X restore 715 551 pd genPentatonic;
#N canvas 260 136 744 892 genPentatonic 0;
#X obj 75 77 random 5;
#X obj 75 111 select 0 1 2 3 4;
#X obj 145 253 + 0;
#X floatatom 311 173 5 0 0 0 - - -, f 5;
#X obj 311 120 loadbang;
#X msg 311 147 59;
#X obj 83 27 bng 15 250 50 0 empty empty empty 17 7 0 10 #fcfcfc #000000
#000000;
#X floatatom 139 334 5 0 0 0 - - -, f 5;
#X obj 123 775 *~;
#X obj 138 303 mtof;
#X obj 126 799 outlet~;
#X obj 83 1 inlet;
#X obj 139 383 osc~;
#X floatatom 370 573 5 0 0 0 - - -, f 5;
#X floatatom 351 544 5 0 0 0 - - -, f 5;
#X floatatom 334 519 5 0 0 0 - - -, f 5;
#X floatatom 299 472 5 0 0 0 - - -, f 5;
#X floatatom 317 497 5 0 0 0 - - -, f 5;
#X text 337 470 peak level;
#X text 358 492 attack duration (ms);
#X text 372 514 decay duration (ms);
#X text 392 540 sustain level (% of peak);
#X text 404 570 release duration (ms);
#N canvas 251 52 707 458 envelope_adsr 0;
#X obj 209 53 moses;
#X obj 112 56 inlet;
#X obj 112 92 sel 0;
#X msg 111 130 stop;
#X obj 209 93 t b b;
#X obj 258 125 t b;
#X obj 174 209 f \$1;
#X obj 174 245 pack 0 \$2;
#X msg 125 245 0;
#X obj 337 145 inlet;
#X obj 377 145 inlet;
#X obj 421 145 inlet;
#X obj 461 145 inlet;
#X obj 314 239 del \$2;
#X obj 314 265 f \$4;
#X obj 390 268 * \$1;
#X obj 389 299 pack 0 \$3;
#X obj 472 301 pack 0 \$5;
#X obj 518 269 inlet;
#X obj 354 358 line~;
#X obj 354 386 outlet~;
#X obj 313 299 * 0.5;
#X connect 0 0 4 0;
#X connect 0 1 5 0;
#X connect 1 0 2 0;
#X connect 2 0 3 0;
#X connect 2 0 17 0;
#X connect 2 1 0 0;
#X connect 3 0 13 0;
#X connect 4 0 5 0;
#X connect 4 1 8 0;
#X connect 5 0 6 0;
#X connect 5 0 13 0;
#X connect 6 0 7 0;
#X connect 7 0 19 0;
#X connect 8 0 19 0;
#X connect 9 0 15 1;
#X connect 9 0 6 1;
#X connect 10 0 13 1;
#X connect 10 0 7 1;
#X connect 11 0 16 1;
#X connect 12 0 14 1;
#X connect 13 0 14 0;
#X connect 14 0 21 0;
#X connect 15 0 16 0;
#X connect 16 0 19 0;
#X connect 17 0 19 0;
#X connect 18 0 17 1;
#X connect 19 0 20 0;
#X connect 21 0 15 0;
#X restore 276 611 pd envelope_adsr;
#X msg 379 426 1;
#X obj 386 383 loadbang;
#X obj 250 510 tgl 15 0 empty empty empty 17 7 0 10 #fcfcfc #000000
#000000 0 1;
#X obj 257 392 bng 15 250 50 0 empty empty empty 17 7 0 10 #fcfcfc
#000000 #000000;
#X msg 228 468 1;
#X msg 260 468 0;
#X msg 416 425 50;
#X obj 260 435 del 50;
#X msg 567 426 180;
#X msg 524 424 0.1;
#X msg 460 424 10;
#X msg 109 160 -4;
#X msg 70 160 -7;
#X msg 150 160 0;
#X msg 192 160 4;
#X msg 238 161 7;
#X connect 0 0 1 0;
#X connect 1 0 36 0;
#X connect 1 1 35 0;
#X connect 1 2 37 0;
#X connect 1 3 38 0;
#X connect 1 4 39 0;
#X connect 2 0 9 0;
#X connect 3 0 2 1;
#X connect 4 0 5 0;
#X connect 5 0 3 0;
#X connect 6 0 0 0;
#X connect 6 0 27 0;
#X connect 7 0 12 0;
#X connect 8 0 10 0;
#X connect 9 0 7 0;
#X connect 11 0 6 0;
#X connect 12 0 8 0;
#X connect 13 0 23 5;
#X connect 14 0 23 4;
#X connect 15 0 23 3;
#X connect 16 0 23 1;
#X connect 17 0 23 2;
#X connect 23 0 8 1;
#X connect 24 0 16 0;
#X connect 25 0 24 0;
#X connect 25 0 30 0;
#X connect 25 0 33 0;
#X connect 25 0 32 0;
#X connect 25 0 34 0;
#X connect 26 0 23 0;
#X connect 27 0 28 0;
#X connect 27 0 31 0;
#X connect 28 0 26 0;
#X connect 29 0 26 0;
#X connect 30 0 17 0;
#X connect 31 0 29 0;
#X connect 32 0 13 0;
#X connect 33 0 14 0;
#X connect 34 0 15 0;
#X connect 35 0 2 0;
#X connect 36 0 2 0;
#X connect 37 0 2 0;
#X connect 38 0 2 0;
#X connect 39 0 2 0;
#X restore 829 549 pd genPentatonic;
#N canvas 552 109 723 849 genPentatonic 0;
#X obj 75 77 random 5;
#X obj 75 111 select 0 1 2 3 4;
#X obj 145 253 + 0;
#X floatatom 311 173 5 0 0 0 - - -, f 5;
#X obj 311 120 loadbang;
#X msg 311 147 59;
#X obj 83 27 bng 15 250 50 0 empty empty empty 17 7 0 10 #fcfcfc #000000
#000000;
#X floatatom 139 334 5 0 0 0 - - -, f 5;
#X obj 134 721 *~;
#X obj 138 303 mtof;
#X obj 135 755 outlet~;
#X obj 83 1 inlet;
#X obj 127 488 osc~;
#X floatatom 450 577 5 0 0 0 - - -, f 5;
#X floatatom 431 548 5 0 0 0 - - -, f 5;
#X floatatom 414 523 5 0 0 0 - - -, f 5;
#X floatatom 379 476 5 0 0 0 - - -, f 5;
#X floatatom 397 501 5 0 0 0 - - -, f 5;
#X text 417 474 peak level;
#X text 438 496 attack duration (ms);
#X text 452 518 decay duration (ms);
#X text 472 544 sustain level (% of peak);
#X text 484 574 release duration (ms);
#N canvas 251 52 707 458 envelope_adsr 0;
#X obj 209 53 moses;
#X obj 112 56 inlet;
#X obj 112 92 sel 0;
#X msg 111 130 stop;
#X obj 209 93 t b b;
#X obj 258 125 t b;
#X obj 174 209 f \$1;
#X obj 174 245 pack 0 \$2;
#X msg 125 245 0;
#X obj 337 145 inlet;
#X obj 377 145 inlet;
#X obj 421 145 inlet;
#X obj 461 145 inlet;
#X obj 314 239 del \$2;
#X obj 314 265 f \$4;
#X obj 390 268 * \$1;
#X obj 389 299 pack 0 \$3;
#X obj 472 301 pack 0 \$5;
#X obj 518 269 inlet;
#X obj 354 358 line~;
#X obj 354 386 outlet~;
#X obj 313 299 * 0.5;
#X connect 0 0 4 0;
#X connect 0 1 5 0;
#X connect 1 0 2 0;
#X connect 2 0 3 0;
#X connect 2 0 17 0;
#X connect 2 1 0 0;
#X connect 3 0 13 0;
#X connect 4 0 5 0;
#X connect 4 1 8 0;
#X connect 5 0 6 0;
#X connect 5 0 13 0;
#X connect 6 0 7 0;
#X connect 7 0 19 0;
#X connect 8 0 19 0;
#X connect 9 0 15 1;
#X connect 9 0 6 1;
#X connect 10 0 13 1;
#X connect 10 0 7 1;
#X connect 11 0 16 1;
#X connect 12 0 14 1;
#X connect 13 0 14 0;
#X connect 14 0 21 0;
#X connect 15 0 16 0;
#X connect 16 0 19 0;
#X connect 17 0 19 0;
#X connect 18 0 17 1;
#X connect 19 0 20 0;
#X connect 21 0 15 0;
#X restore 356 615 pd envelope_adsr;
#X msg 459 430 1;
#X obj 466 387 loadbang;
#X obj 330 514 tgl 15 0 empty empty empty 17 7 0 10 #fcfcfc #000000
#000000 0 1;
#X obj 337 396 bng 15 250 50 0 empty empty empty 17 7 0 10 #fcfcfc
#000000 #000000;
#X msg 308 472 1;
#X msg 340 472 0;
#X msg 496 429 50;
#X msg 540 433 100;
#X obj 177 488 osc~;
#X obj 179 456 * 1.5;
#X obj 229 487 osc~;
#X obj 231 456 * 3;
#X obj 340 439 del 50;
#X msg 664 434 180;
#X msg 621 432 0.1;
#X msg 70 160 -5;
#X msg 109 160 -4;
#X msg 150 160 0;
#X msg 190 160 4;
#X msg 238 161 5;
#X connect 0 0 1 0;
#X connect 1 0 39 0;
#X connect 1 1 40 0;
#X connect 1 2 41 0;
#X connect 1 3 42 0;
#X connect 1 4 43 0;
#X connect 2 0 9 0;
#X connect 3 0 2 1;
#X connect 4 0 5 0;
#X connect 5 0 3 0;
#X connect 6 0 0 0;
#X connect 6 0 27 0;
#X connect 7 0 12 0;
#X connect 7 0 33 0;
#X connect 7 0 35 0;
#X connect 8 0 10 0;
#X connect 9 0 7 0;
#X connect 11 0 6 0;
#X connect 12 0 8 0;
#X connect 13 0 23 5;
#X connect 14 0 23 4;
#X connect 15 0 23 3;
#X connect 16 0 23 1;
#X connect 17 0 23 2;
#X connect 23 0 8 1;
#X connect 24 0 16 0;
#X connect 25 0 24 0;
#X connect 25 0 30 0;
#X connect 25 0 38 0;
#X connect 25 0 37 0;
#X connect 25 0 31 0;
#X connect 26 0 23 0;
#X connect 27 0 28 0;
#X connect 27 0 36 0;
#X connect 28 0 26 0;
#X connect 29 0 26 0;
#X connect 30 0 17 0;
#X connect 31 0 15 0;
#X connect 32 0 8 0;
#X connect 33 0 32 0;
#X connect 34 0 8 0;
#X connect 35 0 34 0;
#X connect 36 0 29 0;
#X connect 37 0 13 0;
#X connect 38 0 14 0;
#X connect 39 0 2 0;
#X connect 40 0 2 0;
#X connect 41 0 2 0;
#X connect 42 0 2 0;
#X connect 43 0 2 0;
#X restore 953 548 pd genPentatonic;
#N canvas 391 306 805 543 genPentatonic 0;
#X obj 75 77 random 5;
#X obj 75 111 select 0 1 2 3 4;
#X msg 70 160 0;
#X obj 145 253 + 0;
#X floatatom 311 173 5 0 0 0 - - -, f 5;
#X obj 311 120 loadbang;
#X msg 311 147 59;
#X obj 83 27 bng 15 250 50 0 empty empty empty 17 7 0 10 #fcfcfc #000000
#000000;
#X floatatom 139 334 5 0 0 0 - - -, f 5;
#X obj 137 734 *~;
#X obj 138 303 mtof;
#X obj 138 768 outlet~;
#X obj 83 1 inlet;
#X obj 134 484 osc~;
#X msg 110 160 3;
#X floatatom 392 552 5 0 0 0 - - -, f 5;
#X floatatom 373 523 5 0 0 0 - - -, f 5;
#X floatatom 356 498 5 0 0 0 - - -, f 5;
#X floatatom 321 451 5 0 0 0 - - -, f 5;
#X floatatom 339 476 5 0 0 0 - - -, f 5;
#X text 359 449 peak level;
#X text 380 471 attack duration (ms);
#X text 394 493 decay duration (ms);
#X text 414 519 sustain level (% of peak);
#X text 426 549 release duration (ms);
#N canvas 251 52 707 458 envelope_adsr 0;
#X obj 209 53 moses;
#X obj 112 56 inlet;
#X obj 112 92 sel 0;
#X msg 111 130 stop;
#X obj 209 93 t b b;
#X obj 258 125 t b;
#X obj 174 209 f \$1;
#X obj 174 245 pack 0 \$2;
#X msg 125 245 0;
#X obj 337 145 inlet;
#X obj 377 145 inlet;
#X obj 421 145 inlet;
#X obj 461 145 inlet;
#X obj 314 239 del \$2;
#X obj 314 265 f \$4;
#X obj 390 268 * \$1;
#X obj 389 299 pack 0 \$3;
#X obj 472 301 pack 0 \$5;
#X obj 518 269 inlet;
#X obj 354 358 line~;
#X obj 354 386 outlet~;
#X obj 313 299 * 0.5;
#X connect 0 0 4 0;
#X connect 0 1 5 0;
#X connect 1 0 2 0;
#X connect 2 0 3 0;
#X connect 2 0 17 0;
#X connect 2 1 0 0;
#X connect 3 0 13 0;
#X connect 4 0 5 0;
#X connect 4 1 8 0;
#X connect 5 0 6 0;
#X connect 5 0 13 0;
#X connect 6 0 7 0;
#X connect 7 0 19 0;
#X connect 8 0 19 0;
#X connect 9 0 15 1;
#X connect 9 0 6 1;
#X connect 10 0 13 1;
#X connect 10 0 7 1;
#X connect 11 0 16 1;
#X connect 12 0 14 1;
#X connect 13 0 14 0;
#X connect 14 0 21 0;
#X connect 15 0 16 0;
#X connect 16 0 19 0;
#X connect 17 0 19 0;
#X connect 18 0 17 1;
#X connect 19 0 20 0;
#X connect 21 0 15 0;
#X restore 298 590 pd envelope_adsr;
#X msg 401 405 1;
#X obj 408 362 loadbang;
#X obj 272 489 tgl 15 0 empty empty empty 17 7 0 10 #fcfcfc #000000
#000000 0 1;
#X obj 279 371 bng 15 250 50 0 empty empty empty 17 7 0 10 #fcfcfc
#000000 #000000;
#X msg 250 447 1;
#X msg 282 447 0;
#X msg 438 404 50;
#X obj 282 414 del 50;
#X msg 568 406 180;
#X msg 525 404 0.1;
#X msg 481 406 10;
#X msg 151 160 4;
#X msg 190 160 5;
#X msg 238 161 0;
#X connect 0 0 1 0;
#X connect 1 0 2 0;
#X connect 1 1 14 0;
#X connect 1 2 37 0;
#X connect 1 3 38 0;
#X connect 1 4 39 0;
#X connect 2 0 3 0;
#X connect 3 0 10 0;
#X connect 4 0 3 1;
#X connect 5 0 6 0;
#X connect 6 0 4 0;
#X connect 7 0 0 0;
#X connect 7 0 29 0;
#X connect 8 0 13 0;
#X connect 9 0 11 0;
#X connect 10 0 8 0;
#X connect 12 0 7 0;
#X connect 13 0 9 0;
#X connect 14 0 3 0;
#X connect 15 0 25 5;
#X connect 16 0 25 4;
#X connect 17 0 25 3;
#X connect 18 0 25 1;
#X connect 19 0 25 2;
#X connect 25 0 9 1;
#X connect 26 0 18 0;
#X connect 27 0 26 0;
#X connect 27 0 32 0;
#X connect 27 0 35 0;
#X connect 27 0 34 0;
#X connect 27 0 36 0;
#X connect 28 0 25 0;
#X connect 29 0 30 0;
#X connect 29 0 33 0;
#X connect 30 0 28 0;
#X connect 31 0 28 0;
#X connect 32 0 19 0;
#X connect 33 0 31 0;
#X connect 34 0 15 0;
#X connect 35 0 16 0;
#X connect 36 0 17 0;
#X connect 37 0 3 0;
#X connect 38 0 3 0;
#X connect 39 0 3 0;
#X restore 1075 549 pd genPentatonic;
#N canvas 727 286 450 395 seq3 0;
#X obj 63 28 inlet;
#X obj 102 356 outlet;
#X obj 103 288 + 0;
#X obj 67 74 f;
#X obj 110 76 + 1;
#X floatatom 304 225 5 0 0 0 - - -, f 5;
#X obj 304 172 loadbang;
#X msg 304 199 35;
#X msg 61 194 8;
#X msg 100 194 7;
#X msg 141 194 5;
#X msg 184 194 7;
#X obj 88 141 select 0 1 2 3 4;
#X msg 229 195 0;
#X obj 87 109 mod 5;
#X connect 0 0 3 0;
#X connect 2 0 1 0;
#X connect 3 0 4 0;
#X connect 3 0 14 0;
#X connect 4 0 3 1;
#X connect 5 0 2 1;
#X connect 6 0 7 0;
#X connect 7 0 5 0;
#X connect 8 0 2 0;
#X connect 9 0 2 0;
#X connect 10 0 2 0;
#X connect 11 0 2 0;
#X connect 12 0 8 0;
#X connect 12 1 9 0;
#X connect 12 2 10 0;
#X connect 12 3 11 0;
#X connect 12 4 13 0;
#X connect 13 0 2 0;
#X connect 14 0 12 0;
#X restore 437 329 pd seq3;
#X text 540 190 Probability based trigger;
#X floatatom 464 512 5 0 0 0 - - -, f 5;
#N canvas 631 64 571 808 orhestration2 0;
#X obj 144 21 inlet;
#X obj 154 783 outlet~;
#X floatatom 144 153 5 0 0 0 - - -, f 5;
#X obj 84 231 osc~;
#X obj 146 114 t b f;
#X obj 157 650 *~;
#X text 190 22 Frequency input;
#X obj 143 235 osc~;
#X obj 21 237 osc~;
#X obj 87 203 * 2;
#X obj 148 76 * 2;
#X obj 23 264 *~ 0.5;
#X floatatom 380 413 5 0 0 0 - - -, f 5;
#X floatatom 361 384 5 0 0 0 - - -, f 5;
#X floatatom 344 359 5 0 0 0 - - -, f 5;
#X floatatom 309 312 5 0 0 0 - - -, f 5;
#X floatatom 327 337 5 0 0 0 - - -, f 5;
#X text 347 310 peak level;
#X text 368 332 attack duration (ms);
#X text 382 354 decay duration (ms);
#X text 402 380 sustain level (% of peak);
#X text 414 410 release duration (ms);
#N canvas 251 52 707 458 envelope_adsr 0;
#X obj 209 53 moses;
#X obj 112 56 inlet;
#X obj 112 92 sel 0;
#X msg 111 130 stop;
#X obj 209 93 t b b;
#X obj 258 125 t b;
#X obj 174 209 f \$1;
#X obj 174 245 pack 0 \$2;
#X msg 125 245 0;
#X obj 337 145 inlet;
#X obj 377 145 inlet;
#X obj 421 145 inlet;
#X obj 461 145 inlet;
#X obj 314 239 del \$2;
#X obj 314 265 f \$4;
#X obj 390 268 * \$1;
#X obj 389 299 pack 0 \$3;
#X obj 472 301 pack 0 \$5;
#X obj 518 269 inlet;
#X obj 354 358 line~;
#X obj 354 386 outlet~;
#X obj 313 299 * 0.5;
#X connect 0 0 4 0;
#X connect 0 1 5 0;
#X connect 1 0 2 0;
#X connect 2 0 3 0;
#X connect 2 0 17 0;
#X connect 2 1 0 0;
#X connect 3 0 13 0;
#X connect 4 0 5 0;
#X connect 4 1 8 0;
#X connect 5 0 6 0;
#X connect 5 0 13 0;
#X connect 6 0 7 0;
#X connect 7 0 19 0;
#X connect 8 0 19 0;
#X connect 9 0 15 1;
#X connect 9 0 6 1;
#X connect 10 0 13 1;
#X connect 10 0 7 1;
#X connect 11 0 16 1;
#X connect 12 0 14 1;
#X connect 13 0 14 0;
#X connect 14 0 21 0;
#X connect 15 0 16 0;
#X connect 16 0 19 0;
#X connect 17 0 19 0;
#X connect 18 0 17 1;
#X connect 19 0 20 0;
#X connect 21 0 15 0;
#X restore 286 451 pd envelope_adsr;
#X msg 389 266 1;
#X obj 396 223 loadbang;
#X obj 260 350 tgl 15 0 empty empty empty 17 7 0 10 #fcfcfc #000000
#000000 0 1;
#X obj 267 232 bng 15 250 50 0 empty empty empty 17 7 0 10 #fcfcfc
#000000 #000000;
#X msg 238 308 1;
#X msg 270 308 0;
#X msg 506 266 1;
#X msg 549 268 700;
#N canvas 270 86 1178 553 chorus 0;
#X obj 221 106 osc~ 0.05;
#X obj 221 131 *~ 10;
#X obj 376 130 *~ 10;
#X obj 221 156 +~ 11;
#X obj 376 155 +~ 21;
#X obj 376 105 osc~ 0.08;
#X obj 511 135 *~ 10;
#X obj 511 110 osc~ 0.13;
#X obj 511 160 +~ 13;
#X obj 694 142 *~ 10;
#X obj 694 167 +~ 55;
#X obj 694 117 osc~ 0.03;
#X obj 839 168 +~ 87;
#X obj 839 118 osc~ 0.015;
#X obj 985 114 osc~ 0.12;
#X obj 985 164 +~ 67;
#X obj 985 139 *~ 5;
#X obj 839 143 *~ 15;
#X obj 61 145 nbx 5 14 -1e+37 1e+37 0 0 empty empty empty 0 -8 0 10
#fcfcfc #000000 #000000 0 256 0;
#X obj 22 92 inlet~;
#X obj 532 418 outlet~;
#X obj 630 416 outlet~;
#X obj 271 269 *~ 0.05;
#X obj 214 270 *~ 0.95;
#X obj 1032 261 *~ 0.95;
#X obj 975 262 *~ 0.05;
#X obj 884 262 *~ 0.85;
#X obj 368 266 *~ 0.85;
#X obj 498 267 *~ 0.7;
#X obj 744 263 *~ 0.7;
#X obj 827 263 *~ 0.15;
#X obj 687 264 *~ 0.3;
#X obj 555 266 *~ 0.3;
#X obj 425 265 *~ 0.15;
#X obj 222 221 /~ 6;
#X obj 375 224 /~ 6;
#X obj 512 221 /~ 6;
#X obj 696 226 /~ 6;
#X obj 841 224 /~ 6;
#X obj 988 225 /~ 6;
#X obj 23 172 *~ 1;
#X obj 23 259 delwrite~ delay2 1000;
#X obj 221 184 vd~ delay2;
#X obj 376 183 vd~ delay2;
#X obj 511 188 vd~ delay2;
#X obj 694 195 vd~ delay2;
#X obj 839 196 vd~ delay2;
#X obj 985 192 vd~ delay2;
#X connect 0 0 1 0;
#X connect 1 0 3 0;
#X connect 2 0 4 0;
#X connect 3 0 42 0;
#X connect 4 0 43 0;
#X connect 5 0 2 0;
#X connect 6 0 8 0;
#X connect 7 0 6 0;
#X connect 8 0 44 0;
#X connect 9 0 10 0;
#X connect 10 0 45 0;
#X connect 11 0 9 0;
#X connect 12 0 46 0;
#X connect 13 0 17 0;
#X connect 14 0 16 0;
#X connect 15 0 47 0;
#X connect 16 0 15 0;
#X connect 17 0 12 0;
#X connect 18 0 40 1;
#X connect 19 0 40 0;
#X connect 22 0 21 0;
#X connect 23 0 20 0;
#X connect 24 0 21 0;
#X connect 25 0 20 0;
#X connect 26 0 21 0;
#X connect 27 0 20 0;
#X connect 28 0 20 0;
#X connect 29 0 21 0;
#X connect 30 0 20 0;
#X connect 31 0 20 0;
#X connect 32 0 21 0;
#X connect 33 0 21 0;
#X connect 34 0 23 0;
#X connect 34 0 22 0;
#X connect 35 0 27 0;
#X connect 35 0 33 0;
#X connect 36 0 28 0;
#X connect 36 0 32 0;
#X connect 37 0 29 0;
#X connect 37 0 31 0;
#X connect 38 0 26 0;
#X connect 38 0 30 0;
#X connect 39 0 24 0;
#X connect 39 0 25 0;
#X connect 40 0 41 0;
#X connect 42 0 34 0;
#X connect 43 0 35 0;
#X connect 44 0 36 0;
#X connect 45 0 37 0;
#X connect 46 0 38 0;
#X connect 47 0 39 0;
#X restore 155 711 pd chorus;
#N canvas 70 339 447 447 xpand 0;
#X obj 77 49 inlet~;
#X obj 178 50 inlet~;
#X obj 131 110 +~;
#X obj 126 149 /~ 2;
#X obj 78 182 -~;
#X obj 173 182 -~;
#X obj 74 231 *~ 0;
#X obj 174 226 *~ 0;
#X obj 171 338 outlet~;
#X obj 71 337 outlet~;
#X floatatom 284 114 5 0 0 0 - - -, f 5;
#X obj 285 64 loadbang;
#X msg 288 90 2;
#X connect 0 0 2 0;
#X connect 0 0 4 0;
#X connect 1 0 2 1;
#X connect 1 0 5 1;
#X connect 2 0 3 0;
#X connect 3 0 4 1;
#X connect 3 0 5 0;
#X connect 3 0 8 0;
#X connect 3 0 9 0;
#X connect 4 0 6 0;
#X connect 5 0 7 0;
#X connect 6 0 9 0;
#X connect 7 0 8 0;
#X connect 10 0 7 1;
#X connect 10 0 6 1;
#X connect 11 0 12 0;
#X connect 12 0 10 0;
#X restore 169 753 pd xpand;
#X obj 236 781 outlet~;
#X obj 270 275 del 10;
#X obj 25 201 * 4;
#N canvas 1026 414 479 474 distortion 0;
#X obj 147 32 inlet~;
#X obj 159 351 outlet~;
#N canvas 0 23 713 460 tanh 0;
#X obj 241 65 inlet~;
#X text 493 89 __;
#X text 575 89 __;
#X text 527 89 __;
#X text 626 89 __;
#X text 493 106 1 +;
#X text 529 106 3 +;
#X text 577 106 5 +;
#X text 627 106 7 +;
#X text 443 32 As a continued fraction;
#X obj 240 148 *~;
#X obj 165 265 /~;
#X obj 165 350 /~;
#X obj 165 288 /~;
#X obj 165 321 /~;
#X text 427 78 tanh(z) = z z^2 4z^2 9z^2 ...;
#X obj 292 175 *~ 4;
#X obj 291 206 +~ 3;
#X obj 335 174 *~ 9;
#X obj 334 205 +~ 5;
#X obj 375 175 *~ 16;
#X obj 374 205 +~ 7;
#X obj 240 206 +~ 1;
#X obj 165 401 outlet~;
#X obj 165 372 *~ 576;
#X text 276 114 1/pi;
#X obj 241 89 *~ 0.30831;
#X connect 0 0 26 0;
#X connect 10 0 16 0;
#X connect 10 0 18 0;
#X connect 10 0 20 0;
#X connect 10 0 22 0;
#X connect 11 0 13 0;
#X connect 12 0 24 0;
#X connect 13 0 14 0;
#X connect 14 0 12 0;
#X connect 16 0 17 0;
#X connect 17 0 13 1;
#X connect 18 0 19 0;
#X connect 19 0 14 1;
#X connect 20 0 21 0;
#X connect 21 0 12 1;
#X connect 22 0 11 1;
#X connect 24 0 23 0;
#X connect 26 0 10 1;
#X connect 26 0 10 0;
#X connect 26 0 11 0;
#X restore 238 187 pd tanh afarnell;
#X obj 245 243 *~ 0.25;
#X obj 121 229 *~ 0.75;
#X obj 233 142 *~ 5;
#X connect 0 0 4 0;
#X connect 0 0 5 0;
#X connect 2 0 3 0;
#X connect 3 0 1 0;
#X connect 4 0 1 0;
#X connect 5 0 2 0;
#X restore 158 677 pd distortion;
#X msg 426 266 100;
#X msg 460 270 2.5;
#X connect 0 0 10 0;
#X connect 2 0 7 0;
#X connect 2 0 9 0;
#X connect 2 0 35 0;
#X connect 3 0 5 0;
#X connect 4 0 26 0;
#X connect 4 1 2 0;
#X connect 5 0 36 0;
#X connect 7 0 5 0;
#X connect 8 0 11 0;
#X connect 9 0 3 0;
#X connect 10 0 4 0;
#X connect 11 0 5 0;
#X connect 12 0 22 5;
#X connect 13 0 22 4;
#X connect 14 0 22 3;
#X connect 15 0 22 1;
#X connect 16 0 22 2;
#X connect 22 0 5 1;
#X connect 23 0 15 0;
#X connect 24 0 23 0;
#X connect 24 0 37 0;
#X connect 24 0 29 0;
#X connect 24 0 30 0;
#X connect 24 0 38 0;
#X connect 25 0 22 0;
#X connect 26 0 27 0;
#X connect 26 0 34 0;
#X connect 27 0 25 0;
#X connect 28 0 25 0;
#X connect 29 0 13 0;
#X connect 30 0 12 0;
#X connect 31 0 32 0;
#X connect 31 1 32 1;
#X connect 32 0 1 0;
#X connect 32 1 33 0;
#X connect 34 0 28 0;
#X connect 35 0 8 0;
#X connect 36 0 31 0;
#X connect 37 0 16 0;
#X connect 38 0 14 0;
#X restore 464 535 pd orhestration2;
#X obj 537 109 loadbang;
#X obj 960 190 loadbang;
#X obj 460 780 *~;
#X floatatom 581 654 5 0 0 0 - - -, f 5;
#X obj 494 783 *~;
#X obj 902 941 *~;
#X floatatom 687 646 5 0 0 0 - - -, f 5;
#X obj 938 941 *~;
#X obj 2042 169 r stinger @hv_event;
#X obj 1008 216 r probChimes @hv_param 0 0.75 0.2;
#X obj 585 132 r probBass @hv_param 0 0.75 0.2;
#X obj 2085 745 dac~;
#X obj 2073 711 *~;
#X floatatom 2130 670 5 0 0 0 - - -, f 5;
#X obj 2109 711 *~;
#X obj 2142 613 loadbang;
#N canvas 547 381 646 481 stereoReverb 0;
#X obj 122 375 outlet~;
#X obj 189 375 outlet~;
#X obj 125 30 inlet~;
#X obj 211 32 inlet~;
#X obj 143 237 rev3~ 100 90 3000 20;
#X text 377 176 crossover frequency \, Hz.;
#X obj 165 203 *~ -1;
#X text 305 112 output level (dB);
#X text 335 136 liveness \, feedback percentage (0-100), f 18;
#X text 392 203 High Frequency damping \, percentage (0-100), f 23
;
#X obj 346 78 loadbang;
#X msg 337 174 5000;
#X msg 292 150 25;
#X msg 357 209 0;
#X floatatom 220 160 5 0 0 0 - - -, f 5;
#X msg 256 125 135;
#X connect 2 0 4 0;
#X connect 3 0 6 0;
#X connect 4 0 0 0;
#X connect 4 1 1 0;
#X connect 6 0 4 1;
#X connect 10 0 15 0;
#X connect 10 0 11 0;
#X connect 10 0 12 0;
#X connect 10 0 13 0;
#X connect 11 0 4 4;
#X connect 12 0 4 3;
#X connect 13 0 4 5;
#X connect 14 0 4 2;
#X connect 15 0 14 0;
#X restore 435 968 pd stereoReverb;
#X msg 2140 637 0.6;
#X obj 898 826 rev3~ 100 90 3000 20;
#X text 1132 765 crossover frequency \, Hz.;
#X obj 931 794 *~ -1;
#X text 1060 701 output level (dB);
#X text 1090 725 liveness \, feedback percentage (0-100), f 18;
#X text 1147 792 High Frequency damping \, percentage (0-100), f 23
;
#X obj 1101 667 loadbang;
#X obj 2067 559 rev3~ 100 90 3000 20;
#X text 2301 498 crossover frequency \, Hz.;
#X obj 2089 525 *~ -1;
#X text 2229 434 output level (dB);
#X text 2259 458 liveness \, feedback percentage (0-100), f 18;
#X text 2316 525 High Frequency damping \, percentage (0-100), f 23
;
#X obj 2270 400 loadbang;
#X msg 2216 472 75;
#X msg 2281 531 85;
#X msg 2261 496 5000;
#X msg 2180 446 100;
#X msg 960 217 1.5;
#X msg 1047 739 80;
#X msg 1092 763 100;
#X msg 1112 798 20;
#X msg 1011 713 100;
#X floatatom 760 -2 5 0 0 0 - - -, f 5;
#X obj 609 -30 tgl 15 0 empty empty empty 17 7 0 10 #fcfcfc #000000
#000000 1 1;
#X obj 610 0 metro 250;
#X text 179 -45 creation arguments are OSC address;
#X text 181 -84 set message to change OSC address;
#X text 253 -219 1 Set IP Address : network address;
#X text 253 -199 2 Set Ports (sending and listening);
#X text 253 -180 3 Set OSC Addresses (routing osc data;
#X text 244 -241 Key Settings;
#X floatatom 20 -130 5 0 0 0 - - -, f 5;
#N canvas 473 25 958 847 oscReceive 0;
#X obj 55 184 netreceive -u -b;
#X msg 78 143 listen 0;
#X text 152 143 stop listening;
#X text 64 58 packets from network;
#X text 173 177 UDP packets \, binary output, f 13;
#X obj 45 314 print;
#X obj 45 272 oscparse;
#X text 150 114 listen on port 8000;
#X obj 177 269 oscparse;
#X obj 177 293 list trim;
#X floatatom 21 383 5 0 0 0 - - -, f 5;
#X text 241 267 Parse the OSC message;
#X obj 177 319 route unity;
#X obj 20 360 route trigger;
#X obj 21 410 s osctrig;
#X msg 66 115 listen 8000;
#X obj 66 84 loadbang;
#X floatatom 244 382 5 0 0 0 - - -, f 5;
#X floatatom 361 383 5 0 0 0 - - -, f 5;
#X floatatom 457 382 5 0 0 0 - - -, f 5;
#X floatatom 590 383 5 0 0 0 - - -, f 5;
#X obj 590 360 route gamestart;
#X obj 590 410 s oscgamestart;
#X floatatom 720 383 5 0 0 0 - - -, f 5;
#X obj 460 360 route buttonClicked;
#X obj 457 409 s oscbutton;
#X obj 240 360 route playerAttack;
#X obj 720 360 route gemDrop;
#X obj 720 410 s oscgem;
#X obj 244 409 s oscplayerattack;
#X floatatom 840 383 5 0 0 0 - - -, f 5;
#X obj 840 360 route mobAttack;
#X obj 840 410 s oscmobattack;
#X floatatom 120 383 5 0 0 0 - - -, f 5;
#X obj 120 360 route mobHurt;
#X obj 120 410 s oscmobhurt;
#X obj 360 360 route tempo;
#X obj 361 410 s osctempo;
#X connect 0 0 6 0;
#X connect 0 0 8 0;
#X connect 1 0 0 0;
#X connect 6 0 5 0;
#X connect 8 0 9 0;
#X connect 9 0 12 0;
#X connect 10 0 14 0;
#X connect 12 0 13 0;
#X connect 12 0 21 0;
#X connect 12 0 24 0;
#X connect 12 0 26 0;
#X connect 12 0 27 0;
#X connect 12 0 31 0;
#X connect 12 0 34 0;
#X connect 12 0 36 0;
#X connect 13 0 10 0;
#X connect 15 0 0 0;
#X connect 16 0 15 0;
#X connect 17 0 29 0;
#X connect 18 0 37 0;
#X connect 19 0 25 0;
#X connect 20 0 22 0;
#X connect 21 0 20 0;
#X connect 23 0 28 0;
#X connect 24 0 19 0;
#X connect 26 0 17 0;
#X connect 27 0 23 0;
#X connect 30 0 32 0;
#X connect 31 0 30 0;
#X connect 33 0 35 0;
#X connect 34 0 33 0;
#X connect 36 0 18 0;
#X restore 136 -125 pd oscReceive;
#X obj 136 -231 tgl 15 0 empty empty empty 17 7 0 10 #fcfcfc #000000
#000000 1 1;
#X msg 136 -206 \; pd dsp \$1;
#X obj 21 -46 oscformat PD message;
#X msg 53 -85 set PD message;
#N canvas 727 97 450 300 oscSend 0;
#X msg 158 207 disconnect;
#X obj 61 253 netsend -u -b;
#X obj 59 55 list prepend send;
#X obj 59 80 list trim;
#X msg 150 175 connect 127.0.0.1 8001;
#X obj 59 29 r oscOut;
#X text 301 163 send to port 8001;
#X msg 147 148 connect localhost 8001;
#X obj 147 108 loadbang;
#X connect 0 0 1 0;
#X connect 2 0 3 0;
#X connect 3 0 1 0;
#X connect 4 0 1 0;
#X connect 5 0 2 0;
#X connect 7 0 1 0;
#X connect 8 0 7 0;
#X restore 136 -149 pd oscSend;
#X obj 21 -11 s oscOut;
#X obj 610 -62 r oscgamestart;
#X msg 525 132 0.3;
#X obj 770 -60 r osctempo;
#X obj 970 -31 phasor~;
#X floatatom 970 -59 5 0 0 0 - - -, f 5;
#X obj 970 33 *~;
#X obj 970 130 dac~;
#X obj 970 -85 mtof;
#X obj 1100 -125 vline~;
#X obj 970 -105 *;
#N canvas 186 80 299 281 randomTrigger 0;
#X obj 53 142 <= 1;
#X obj 54 58 random 1000;
#X obj 54 81 / 1000;
#X floatatom 172 99 5 0 1 0 - - -, f 5;
#X floatatom 53 106 5 0 0 0 - - -, f 5;
#X floatatom 53 188 5 0 0 0 - - -, f 5;
#X obj 42 228 select 1;
#X obj 43 19 inlet;
#X obj 177 41 inlet;
#X obj 42 261 outlet;
#X connect 0 0 5 0;
#X connect 1 0 2 0;
#X connect 2 0 4 0;
#X connect 3 0 0 1;
#X connect 4 0 0 0;
#X connect 5 0 6 0;
#X connect 6 0 9 0;
#X connect 7 0 1 0;
#X connect 8 0 3 0;
#X restore 428 190 pd randomTrigger;
#N canvas 0 29 299 281 randomTrigger 0;
#X floatatom 53 106 5 0 0 0 - - -, f 5;
#X obj 43 19 inlet;
#X obj 51 162 outlet;
#X obj 54 58 random 1000;
#X obj 54 81 / 1000;
#X connect 0 0 2 0;
#X connect 1 0 3 0;
#X connect 3 0 4 0;
#X connect 4 0 0 0;
#X restore 996 -149 pd randomTrigger;
#X obj 996 -125 + 1;
#X obj 985 -183 bng 16 250 50 0 empty empty empty 0 -8 0 10 #fcfcfc
#000000 #000000;
#X msg 1100 -150 0.5 25 \, 0 25 75;
#X msg 966 -127 40;
#X obj 1230 -112 noise~;
#X obj 1293 -31 *~;
#X obj 1419 -138 vline~;
#X obj 1290 80 dac~;
#X obj 1315 -195 bng 16 250 50 0 empty empty empty 0 -8 0 10 #fcfcfc
#000000 #000000;
#X obj 1292 -62 vcf~ 1;
#N canvas 0 29 299 281 randomTrigger 0;
#X floatatom 53 106 5 0 0 0 - - -, f 5;
#X obj 43 19 inlet;
#X obj 51 162 outlet;
#X obj 54 58 random 1000;
#X obj 54 81 / 900;
#X connect 0 0 2 0;
#X connect 1 0 3 0;
#X connect 3 0 4 0;
#X connect 4 0 0 0;
#X restore 1250 -156 pd randomTrigger;
#X obj 1300 -97 sig~;
#X obj 1306 -123 *;
#X msg 1357 -157 200;
#X obj 986 -215 r oscgem;
#X obj 1311 -221 r oscmobhurt;
#X msg 1419 -160 1 50 \, 0 25 75;
#X obj 1636 -11 bob~;
#X msg 1643 -143 336.149;
#X obj 1644 -119 pack f 50;
#X obj 1644 -97 line~;
#X msg 1720 -141 7.204;
#X obj 1720 -119 sig~;
#X obj 1771 -111 vline~;
#X obj 1630 130 dac~;
#X obj 1653 -185 bng 16 250 50 0 empty empty empty 0 -8 0 10 #fcfcfc
#000000 #000000;
#X obj 1583 -93 osc~;
#X obj 1583 -120 mtof~;
#X msg 1585 -147 57;
#X obj 1638 25 *~;
#X obj 1654 -218 r oscbutton;
#X msg 1770 -143 0.5 50 \, 0 20 105;
#N canvas 375 47 577 721 Whoosh 0;
#X obj 51 -39 inlet intensity;
#X obj 42 214 noise~;
#X obj 117 357 *~;
#X obj 51 124 bng 15 250 50 0 empty empty empty 17 7 0 10 #fcfcfc #000000
#000000;
#X text 315 -45 (intensity = 0..1.0);
#X obj 51 39 t b 0;
#X obj 117 421 outlet~;
#X msg 231 44 0 \, 1 \$1 0 \, 0 100 \$1;
#X obj 219 11 + 100;
#X msg 230 211 440 \, 800 \$1 0;
#X obj -73 262 switch~;
#X msg -62 212 1;
#X msg -13 211 0;
#X obj -103 234 bng 15 250 50 0 empty empty empty 17 7 0 10 #fcfcfc
#000000 #000000;
#X obj -4 238 bng 15 250 50 0 empty empty empty 17 7 0 10 #fcfcfc #000000
#000000;
#X obj -67 160 delay 1500;
#X obj 182 -41 hsl 128 15 0 1 0 0 empty empty empty -2 -8 0 10 #fcfcfc
#000000 #000000 12700 1;
#X obj 230 237 line;
#X obj 230 78 vline~;
#X obj 219 -10 * 1000;
#X obj 96 274 * 1.5;
#X obj 160 94 *~ 1000;
#X obj 118 127 osc~;
#X obj 118 199 osc~;
#X obj 106 225 *~ 0.5;
#X obj 118 177 +~;
#X obj 118 152 *~ 100;
#X obj 42 331 bp~ 100 10;
#X obj 117 390 *~ 0.2;
#X obj 118 330 bp~ 100 10;
#X text 270 409 http://VideoGameAudio.com;
#X obj -97 -86 cnv 15 200 40 empty empty Whoosh 20 20 0 20 #f8fc00
#000000 0;
#X obj 108 -86 cnv 15 350 40 empty empty empty 20 20 0 20 #dcdcdc #000000
0;
#X text 120 -87 Filtered noise with a sine wave LFO;
#X text 120 -75 Could be used for whooshes or a liftoff;
#X connect 0 0 5 0;
#X connect 1 0 27 0;
#X connect 1 0 29 0;
#X connect 2 0 28 0;
#X connect 3 0 11 0;
#X connect 5 0 3 0;
#X connect 5 1 19 0;
#X connect 7 0 18 0;
#X connect 8 0 7 0;
#X connect 8 0 9 0;
#X connect 9 0 17 0;
#X connect 11 0 10 0;
#X connect 11 0 13 0;
#X connect 12 0 10 0;
#X connect 12 0 14 0;
#X connect 13 0 15 0;
#X connect 15 0 12 0;
#X connect 16 0 5 0;
#X connect 17 0 20 0;
#X connect 17 0 29 1;
#X connect 18 0 2 1;
#X connect 18 0 21 0;
#X connect 19 0 8 0;
#X connect 20 0 27 1;
#X connect 21 0 22 0;
#X connect 21 0 25 1;
#X connect 22 0 26 0;
#X connect 23 0 24 0;
#X connect 24 0 27 0;
#X connect 25 0 23 0;
#X connect 26 0 25 0;
#X connect 27 0 2 0;
#X connect 28 0 6 0;
#X connect 29 0 2 0;
#X restore 1570 370 pd Whoosh;
#X obj 1600 640 dac~;
#X msg 1897 329 120;
#N canvas 447 128 649 492 beatdly1f 0;
#X obj -7 105 inlet~;
#X obj 231 69 inlet;
#X obj 130 140 pow -1;
#X obj 151 178 / 4;
#X obj 182 207 *;
#X obj 166 243 * 60000;
#X obj 20 19 hsl 96 8 0 0.95 0 1 empty empty fb -16 5 0 8 #fcfcfc #000000
#000000 8500 1;
#X text 200 7 beatsynced delay with feedback;
#X obj 82 3 nbx 3 14 0 32 0 1 empty empty empty 0 -8 0 10 #fcfcfc #000000
#000000 5 256 0;
#X text 268 70 <- bpm in;
#X obj 100 111 float;
#X obj 110 44 t b f;
#X obj 20 29 hsl 96 8 20 5000 1 1 empty empty frq -20 5 0 8 #fcfcfc
#000000 #000000 4200 1;
#X obj 451 405 outlet~;
#X obj 250 257 +~;
#X obj 308 196 *~;
#X obj 466 294 delread~ \$0bdl1;
#X obj 274 337 delwrite~ \$0bdl1 4000;
#X obj 370 247 vcf~ 1;
#X obj 344 215 hip~ 200;
#X connect 0 0 14 0;
#X connect 1 0 10 0;
#X connect 2 0 3 0;
#X connect 3 0 4 0;
#X connect 4 0 5 0;
#X connect 5 0 16 0;
#X connect 6 0 15 1;
#X connect 8 0 11 0;
#X connect 10 0 2 0;
#X connect 11 0 10 0;
#X connect 11 1 4 1;
#X connect 12 0 18 1;
#X connect 14 0 17 0;
#X connect 15 0 14 1;
#X connect 16 0 13 0;
#X connect 16 0 18 0;
#X connect 18 0 19 0;
#X connect 19 0 15 0;
#X coords 0 -1 1 1 120 40 1 0 0;
#X restore 1785 347 pd beatdly1f;
#X obj 1897 311 loadbang;
#N canvas 101 241 690 525 autopan 0;
#X obj 105 118 hsl 128 8 0.1 30 1 1 empty empty lfo 132 5 0 8 #fcfcfc
#000000 #000000 6600 1;
#X obj 105 129 hsl 128 8 0 0.5 0 1 empty empty dp 132 5 0 8 #fcfcfc
#000000 #000000 7600 1;
#X obj -19 204 osc~;
#X obj -14 241 *~;
#X obj -63 475 outlet~;
#X obj 62 476 outlet~;
#X obj 116 294 inlet~;
#N canvas 0 50 450 300 pan1 0;
#X obj 297 51 inlet~;
#X obj 256 225 outlet~;
#X obj 336 218 outlet~;
#X obj 251 149 *~;
#X obj 323 154 *~;
#X obj 160 42 clip~ 0 1;
#X obj 120 15 inlet~;
#X obj 208 75 *~ -1;
#X obj 276 122 +~ 1;
#X obj 335 113 *~ -1;
#X connect 0 0 3 0;
#X connect 0 0 4 1;
#X connect 3 0 1 0;
#X connect 4 0 2 0;
#X connect 5 0 7 0;
#X connect 6 0 5 0;
#X connect 7 0 8 0;
#X connect 7 0 9 0;
#X connect 8 0 3 1;
#X connect 9 0 4 0;
#X restore -22 368 pd pan1;
#X obj -17 281 +~ 0.5;
#X connect 0 0 2 0;
#X connect 1 0 3 1;
#X connect 2 0 3 0;
#X connect 3 0 8 0;
#X connect 6 0 7 1;
#X connect 7 0 4 0;
#X connect 7 1 5 0;
#X connect 8 0 7 0;
#X coords 0 -1 1 1 150 40 1 100 100;
#X restore 1772 410 pd autopan;
#X obj 1785 309 catch~ \$0-delay;
#X obj 1785 328 *~ 0.5;
#X obj 1794 391 throw~ \$0-reverb;
#X obj 1630 420 throw~ \$0-delay;
#X obj 1339 367 catch~ \$0-reverb;
#N canvas 94 323 518 565 plateverb1 0;
#X obj -98 324 abs_platereverb1;
#X obj 106 134 hsl 128 8 220.5 22050 1 1 empty empty damping -2 5 0
10 #fcfcfc #000000 #000000 12700 1;
#X obj 106 145 hsl 128 8 0 1 0 1 empty empty decay -2 5 0 10 #fcfcfc
#000000 #000000 6200 1;
#X obj 106 112 hsl 128 8 0 250 0 1 empty empty predelay -2 5 0 10 #fcfcfc
#000000 #000000 0 1;
#X obj 106 123 hsl 128 8 220.5 22050 1 1 empty empty bandwidth -2 5
0 10 #fcfcfc #000000 #000000 9000 1;
#X obj 106 167 hsl 128 8 0 1 0 1 empty empty input_diffusion_2 -2 5
0 10 #fcfcfc #000000 #000000 7000 1;
#X obj 106 156 hsl 128 8 0 1 0 1 empty empty input_diffusion_1 -2 5
0 10 #fcfcfc #000000 #000000 6100 1;
#X obj 106 189 hsl 128 8 0 1 0 1 empty empty decay_diffusion_2 -2 5
0 10 #fcfcfc #000000 #000000 8100 1;
#X obj 106 178 hsl 128 8 0 1 0 1 empty empty decay_diffusion_1 -2 5
0 10 #fcfcfc #000000 #000000 6600 1;
#X obj 106 200 hsl 128 8 0 5 0 1 empty empty excursion -2 5 0 10 #fcfcfc
#000000 #000000 10800 1;
#X obj -119 104 inlet~;
#X obj -109 409 outlet~;
#X obj -1 410 outlet~;
#X text -20 17 Reverb abstraction based on "Simplified plate-class
reverberation topology in the style of Griesinger" from the article
"Effect Design \, Part 1: Reverberator and Other Filters" by Jon Dattorro.
;
#X text -18 74 based on a Pd implementation by Anton Hornquist \, and
rjdj;
#X obj -86 359 hip~ 1;
#X obj -1 363 hip~ 1;
#X connect 0 0 15 0;
#X connect 0 1 16 0;
#X connect 1 0 0 5;
#X connect 2 0 0 6;
#X connect 3 0 0 1;
#X connect 4 0 0 2;
#X connect 5 0 0 4;
#X connect 6 0 0 3;
#X connect 7 0 0 8;
#X connect 8 0 0 7;
#X connect 9 0 0 9;
#X connect 15 0 11 0;
#X connect 16 0 12 0;
#X coords 0 -1 1 1 140 110 1 100 100;
#X restore 1340 390 pd plateverb1;
#X obj 1500 330 r oscplayerattack;
#X obj 2006 -83 noise~;
#X obj 2007 -34 *~;
#X obj 2007 17 osc~;
#X obj 2023 123 dac~;
#X obj 2007 -10 lop~ 30;
#X obj 2010 50 *~;
#X obj 2093 21 vline~;
#X msg 2094 -8 1 0 \, 0 200;
#X floatatom 2163 -133 5 0 0 0 - - -, f 5;
#X obj 2235 -74 r amplitude1;
#X floatatom 2265 55 5 0 0 0 - - -, f 5;
#X obj 2035 -224 r oscmobattack;
#X obj 188 188 hsl 128 15 2000 20000 0 0 empty empty empty -2 -8 0
10 #fcfcfc #000000 #000000 4700 1;
#X obj 188 238 hsl 128 15 0 1 0 0 empty empty empty -2 -8 0 10 #fcfcfc
#000000 #000000 4900 1;
#X obj 188 288 hsl 128 15 0 1 0 0 empty empty empty -2 -8 0 10 #fcfcfc
#000000 #000000 11400 1;
#X obj 188 342 hsl 128 15 0 1 0 0 empty empty empty -2 -8 0 10 #fcfcfc
#000000 #000000 8300 1;
#X obj 188 398 hsl 128 15 0 1 0 0 empty empty empty -2 -8 0 10 #fcfcfc
#000000 #000000 11200 1;
#X obj 188 210 s amplitude1;
#X obj 188 261 s amplitude2;
#X obj 188 311 s amplitude3;
#X obj 188 366 s amplitude4;
#X obj 188 423 s amplitude5;
#X text 23 338 bgm volume;
#X text 53 152 Volume Sliders (sound level control);
#X obj 620 530 r amplitude4;
#X obj 970 70 *~;
#X text 23 188 mob attack volume;
#X text 23 238 gemdrop volume;
#X obj 1070 40 r amplitude2;
#X floatatom 1070 80 5 0 0 0 - - -, f 5;
#X obj 1291 33 *~;
#X floatatom 1391 43 5 0 0 0 - - -, f 5;
#X obj 1391 3 r amplitude3;
#X text 23 288 mob hurt volume;
#X obj 1741 82 *~;
#X floatatom 1841 92 5 0 0 0 - - -, f 5;
#X text 20 400 button click volume;
#X obj 1841 52 r amplitude5;
#X obj 1570 500 *~;
#X floatatom 1650 500 5 0 0 0 - - -, f 5;
#X obj 188 458 hsl 128 15 0 1 0 0 empty empty empty -2 -8 0 10 #fcfcfc
#000000 #000000 12700 1;
#X text 20 460 player attack volume;
#X obj 188 483 s amplitude6;
#X obj 1640 440 r amplitude6;
#X obj 1598 458 * 4;
#X connect 1 0 21 0;
#X connect 2 0 19 0;
#X connect 3 0 4 0;
#X connect 5 0 6 0;
#X connect 6 0 7 0;
#X connect 6 0 9 0;
#X connect 7 0 6 1;
#X connect 8 0 15 0;
#X connect 8 1 16 0;
#X connect 8 2 17 0;
#X connect 8 3 18 0;
#X connect 9 0 8 0;
#X connect 10 0 11 1;
#X connect 11 0 5 0;
#X connect 12 0 91 1;
#X connect 13 0 14 0;
#X connect 14 0 48 0;
#X connect 14 1 50 0;
#X connect 15 0 41 0;
#X connect 16 0 41 0;
#X connect 16 0 43 0;
#X connect 17 0 43 0;
#X connect 18 0 41 0;
#X connect 18 0 43 0;
#X connect 19 0 1 0;
#X connect 21 0 22 0;
#X connect 22 0 25 0;
#X connect 22 1 27 0;
#X connect 23 0 82 0;
#X connect 24 0 59 0;
#X connect 25 0 39 0;
#X connect 26 0 27 1;
#X connect 26 0 25 1;
#X connect 27 0 39 1;
#X connect 28 0 0 0;
#X connect 29 0 30 1;
#X connect 29 0 28 1;
#X connect 30 0 0 1;
#X connect 31 0 13 0;
#X connect 32 0 10 0;
#X connect 33 0 12 0;
#X connect 35 0 34 0;
#X connect 36 0 37 1;
#X connect 36 0 35 1;
#X connect 37 0 34 1;
#X connect 38 0 40 0;
#X connect 39 0 0 0;
#X connect 39 1 0 1;
#X connect 40 0 36 0;
#X connect 41 0 28 0;
#X connect 41 1 30 0;
#X connect 43 0 41 1;
#X connect 47 0 63 0;
#X connect 47 0 61 0;
#X connect 47 0 60 0;
#X connect 47 0 62 0;
#X connect 48 0 35 0;
#X connect 48 1 37 0;
#X connect 50 0 48 1;
#X connect 54 0 58 0;
#X connect 54 0 57 0;
#X connect 54 0 55 0;
#X connect 54 0 56 0;
#X connect 55 0 48 3;
#X connect 56 0 48 5;
#X connect 57 0 48 4;
#X connect 58 0 48 2;
#X connect 59 0 10 0;
#X connect 60 0 41 3;
#X connect 61 0 41 4;
#X connect 62 0 41 5;
#X connect 63 0 41 2;
#X connect 64 0 66 1;
#X connect 65 0 66 0;
#X connect 66 0 91 0;
#X connect 66 0 11 0;
#X connect 73 0 77 0;
#X connect 75 0 76 0;
#X connect 77 0 80 0;
#X connect 78 0 77 0;
#X connect 81 0 65 0;
#X connect 82 0 12 0;
#X connect 83 0 64 0;
#X connect 84 0 86 0;
#X connect 85 0 84 0;
#X connect 86 0 163 0;
#X connect 88 0 85 0;
#X connect 89 0 86 1;
#X connect 90 0 88 0;
#X connect 91 0 2 0;
#X connect 92 0 93 0;
#X connect 93 0 90 1;
#X connect 94 0 96 0;
#X connect 94 0 95 0;
#X connect 94 0 92 0;
#X connect 95 0 89 0;
#X connect 96 0 90 0;
#X connect 97 0 102 0;
#X connect 98 0 168 0;
#X connect 99 0 98 1;
#X connect 101 0 109 0;
#X connect 101 0 106 0;
#X connect 101 0 103 0;
#X connect 102 0 98 0;
#X connect 103 0 105 0;
#X connect 104 0 102 1;
#X connect 105 0 104 0;
#X connect 106 0 105 1;
#X connect 107 0 94 0;
#X connect 108 0 101 0;
#X connect 109 0 99 0;
#X connect 110 0 122 0;
#X connect 111 0 112 0;
#X connect 112 0 113 0;
#X connect 113 0 110 1;
#X connect 114 0 115 0;
#X connect 115 0 110 2;
#X connect 116 0 122 1;
#X connect 118 0 114 0;
#X connect 118 0 124 0;
#X connect 118 0 111 0;
#X connect 118 0 121 0;
#X connect 119 0 110 0;
#X connect 120 0 119 0;
#X connect 121 0 120 0;
#X connect 122 0 172 0;
#X connect 123 0 118 0;
#X connect 124 0 116 0;
#X connect 125 0 134 0;
#X connect 125 0 176 0;
#X connect 127 0 128 1;
#X connect 128 0 130 0;
#X connect 128 0 133 0;
#X connect 129 0 127 0;
#X connect 130 0 126 0;
#X connect 130 1 126 1;
#X connect 131 0 132 0;
#X connect 132 0 128 0;
#X connect 135 0 136 0;
#X connect 136 0 126 0;
#X connect 136 1 126 1;
#X connect 137 0 125 0;
#X connect 138 0 139 0;
#X connect 139 0 142 0;
#X connect 140 0 143 0;
#X connect 142 0 140 0;
#X connect 143 0 141 0;
#X connect 143 0 141 1;
#X connect 144 0 143 1;
#X connect 145 0 144 0;
#X connect 146 0 145 0;
#X connect 147 0 139 1;
#X connect 147 0 148 0;
#X connect 149 0 146 0;
#X connect 150 0 155 0;
#X connect 151 0 156 0;
#X connect 152 0 157 0;
#X connect 153 0 158 0;
#X connect 154 0 159 0;
#X connect 162 0 29 0;
#X connect 162 0 26 0;
#X connect 163 0 87 0;
#X connect 163 0 87 1;
#X connect 166 0 163 1;
#X connect 166 0 167 0;
#X connect 168 0 100 0;
#X connect 168 0 100 1;
#X connect 170 0 168 1;
#X connect 170 0 169 0;
#X connect 172 0 117 0;
#X connect 172 0 117 1;
#X connect 175 0 172 1;
#X connect 175 0 173 0;
#X connect 176 0 126 0;
#X connect 176 0 126 1;
#X connect 177 0 176 1;
#X connect 178 0 180 0;
#X connect 181 0 182 0;
#X connect 182 0 177 0;
